<mxfile host="65bd71144e">
    <diagram id="oQRUsPvTtNQKBBmgBdEi" name="Page-1">
        <mxGraphModel dx="1555" dy="764" grid="1" gridSize="10" guides="1" tooltips="1" connect="1" arrows="1" fold="1" page="1" pageScale="1" pageWidth="850" pageHeight="1100" math="0" shadow="0">
            <root>
                <mxCell id="0"/>
                <mxCell id="1" parent="0"/>
                <mxCell id="10" value="Users" style="swimlane;childLayout=stackLayout;horizontal=1;startSize=30;horizontalStack=0;rounded=1;fontSize=14;fontStyle=0;strokeWidth=2;resizeParent=0;resizeLast=1;shadow=0;dashed=0;align=center;fillColor=#000000;" parent="1" vertex="1">
                    <mxGeometry x="30" y="107.5" width="200" height="250" as="geometry"/>
                </mxCell>
                <mxCell id="13" value="_id&lt;br&gt;&lt;br&gt;firstName&lt;br&gt;&lt;br&gt;lastName&lt;br&gt;&lt;br&gt;email&lt;br&gt;&lt;br&gt;password (hash)&lt;br&gt;&lt;br&gt;salt&lt;br&gt;&lt;br&gt;timestamp" style="text;html=1;align=center;verticalAlign=middle;resizable=0;points=[];autosize=1;strokeColor=none;fillColor=#007FFF;" parent="10" vertex="1">
                    <mxGeometry y="30" width="200" height="220" as="geometry"/>
                </mxCell>
                <mxCell id="22" style="edgeStyle=none;html=1;" parent="1" source="18" target="17" edge="1">
                    <mxGeometry relative="1" as="geometry"/>
                </mxCell>
                <mxCell id="18" value="Replies" style="swimlane;childLayout=stackLayout;horizontal=1;startSize=30;horizontalStack=0;rounded=1;fontSize=14;fontStyle=0;strokeWidth=2;resizeParent=0;resizeLast=1;shadow=0;dashed=0;align=center;fillColor=#000000;" parent="1" vertex="1">
                    <mxGeometry x="850" y="600" width="200" height="270" as="geometry"/>
                </mxCell>
                <mxCell id="19" value="_id&lt;br&gt;&lt;br&gt;comment_id&lt;br&gt;&lt;br&gt;user_id&lt;br&gt;&lt;br&gt;parent_id (null | _id)&lt;br&gt;&lt;br&gt;timestamp&lt;br&gt;&lt;br&gt;replies (1 - 10)" style="text;html=1;align=center;verticalAlign=middle;resizable=0;points=[];autosize=1;strokeColor=none;fillColor=#007FFF;" parent="18" vertex="1">
                    <mxGeometry y="30" width="200" height="240" as="geometry"/>
                </mxCell>
                <mxCell id="30" style="edgeStyle=none;html=1;entryX=0.997;entryY=0.518;entryDx=0;entryDy=0;entryPerimeter=0;" edge="1" parent="1" source="17" target="25">
                    <mxGeometry relative="1" as="geometry"/>
                </mxCell>
                <mxCell id="31" style="edgeStyle=none;html=1;entryX=-0.006;entryY=0.529;entryDx=0;entryDy=0;entryPerimeter=0;" edge="1" parent="1" source="13" target="25">
                    <mxGeometry relative="1" as="geometry"/>
                </mxCell>
                <mxCell id="24" value="Views Replies Count" style="swimlane;childLayout=stackLayout;horizontal=1;startSize=30;horizontalStack=0;rounded=1;fontSize=14;fontStyle=0;strokeWidth=2;resizeParent=0;resizeLast=1;shadow=1;dashed=0;align=center;fillColor=#000000;arcSize=16;strokeColor=#000000;" parent="1" vertex="1">
                    <mxGeometry x="460" y="87.5" width="200" height="270" as="geometry"/>
                </mxCell>
                <mxCell id="25" value="_id&lt;br&gt;&lt;br&gt;&lt;i style=&quot;&quot;&gt;&lt;b&gt;Blog_user_id&lt;br&gt;&lt;/b&gt;&lt;/i&gt;&lt;br&gt;Blog_id&lt;br&gt;&lt;br&gt;User_id&lt;br&gt;&lt;br&gt;view_count (1 - 10)&lt;br&gt;&lt;br&gt;reply_count (0 - 10)&lt;br&gt;&lt;br&gt;timestamp" style="text;html=1;align=center;verticalAlign=middle;resizable=0;points=[];autosize=1;strokeColor=none;fillColor=#FF0000;" parent="24" vertex="1">
                    <mxGeometry y="30" width="200" height="240" as="geometry"/>
                </mxCell>
                <mxCell id="14" value="Blogs" style="swimlane;childLayout=stackLayout;horizontal=1;startSize=30;horizontalStack=0;rounded=1;fontSize=14;fontStyle=0;strokeWidth=2;resizeParent=0;resizeLast=1;shadow=0;dashed=0;align=center;fillColor=#000000;" parent="1" vertex="1">
                    <mxGeometry x="850" y="87.5" width="200" height="285" as="geometry"/>
                </mxCell>
                <mxCell id="17" value="_id&lt;br&gt;&lt;br&gt;title&lt;br&gt;&lt;br&gt;body&lt;br&gt;&lt;br&gt;&lt;b&gt;&lt;i&gt;author_id (user_id)&lt;/i&gt;&lt;/b&gt;&lt;br&gt;&lt;br&gt;slug (unique)&lt;br&gt;&lt;br&gt;timestamp&lt;br&gt;&lt;br&gt;isActive (true / false)&lt;br&gt;&lt;br&gt;views&amp;nbsp;" style="text;html=1;align=center;verticalAlign=middle;resizable=0;points=[];autosize=1;strokeColor=none;fillColor=#007FFF;" parent="14" vertex="1">
                    <mxGeometry y="30" width="200" height="255" as="geometry"/>
                </mxCell>
            </root>
        </mxGraphModel>
    </diagram>
</mxfile>